<?xml version="1.0" encoding="UTF-8" standalone="no"?>
<svg
   height="1200"
   viewBox="-155 -155 1550 1550"
   width="1200"
   version="1.1"
   id="svg1"
   sodipodi:docname="based_p_checked.svg"
   inkscape:version="1.3.2 (091e20e, 2023-11-25, custom)"
   xmlns:inkscape="http://www.inkscape.org/namespaces/inkscape"
   xmlns:sodipodi="http://sodipodi.sourceforge.net/DTD/sodipodi-0.dtd"
   xmlns="http://www.w3.org/2000/svg"
   xmlns:svg="http://www.w3.org/2000/svg">
  <defs
     id="defs1" />
  <sodipodi:namedview
     pagecolor="#303030"
     showgrid="true"
     id="namedview1"
     bordercolor="#666666"
     borderopacity="1.0"
     inkscape:showpageshadow="2"
     inkscape:pageopacity="0.0"
     inkscape:pagecheckerboard="0"
     inkscape:deskcolor="#d1d1d1"
     inkscape:zoom="0.6775"
     inkscape:cx="599.26199"
     inkscape:cy="600"
     inkscape:window-width="2560"
     inkscape:window-height="1009"
     inkscape:window-x="1912"
     inkscape:window-y="-8"
     inkscape:window-maximized="1"
     inkscape:current-layer="g1">
    <inkscape:grid
       id="grid5"
       units="px"
       spacingx="100"
       spacingy="100"
       color="#4772b3"
       opacity="0.2"
       visible="true"
       originx="0"
       originy="0" />
  </sodipodi:namedview>
  <g
     fill="#fff"
     id="g1">
    <path
       d="m261.03125 601c-.56266 0-1.03125.46859-1.03125 1.03125v7.9375c0 .56266.46859 1.03125 1.03125 1.03125h7.9375c.56266 0 1.03125-.46859 1.03125-1.03125v-7.9375c0-.56266-.46859-1.03125-1.03125-1.03125zm0 1h7.9375c.026 0 .0312.005.0312.0312v7.9375c0 .026-.005.0312-.0312.0312h-7.9375c-.026 0-.0312-.005-.0312-.0312v-7.9375c0-.026.005-.0312.0312-.0312z"
       opacity=".55"
       transform="matrix(100 0 0 100 -25900 -60000)"
       id="path1" />
    <path
       d="m 862.89719,533.76297 c 34.90117,-0.009 63.19905,28.28096 63.19905,63.18203 0,34.90106 -28.29788,63.19134 -63.19905,63.18202 h -526.0783 c -34.90109,0.009 -63.19888,-28.28096 -63.19888,-63.18202 0,-34.90107 28.29779,-63.19135 63.19888,-63.18203 z"
       id="path1-5"
       style="mix-blend-mode:normal;fill:#ffffff;fill-opacity:0.54902;stroke-width:94.726"
       sodipodi:nodetypes="csccscc" />
  </g>
</svg>
